<?xml version="1.0" encoding="UTF-8" standalone="no"?>
<!-- Created with Inkscape (http://www.inkscape.org/) -->

<svg
   width="1200"
   height="450"
   viewBox="0 0 317.5 119.0629"
   version="1.1"
   id="svg5"
   inkscape:version="1.1.2 (0a00cf5339, 2022-02-04)"
   sodipodi:docname="browscord.js.svg"
   xmlns:inkscape="http://www.inkscape.org/namespaces/inkscape"
   xmlns:sodipodi="http://sodipodi.sourceforge.net/DTD/sodipodi-0.dtd"
   xmlns:xlink="http://www.w3.org/1999/xlink"
   xmlns="http://www.w3.org/2000/svg"
   xmlns:svg="http://www.w3.org/2000/svg">
  <sodipodi:namedview
     id="namedview7"
     pagecolor="#505050"
     bordercolor="#ffffff"
     borderopacity="1"
     inkscape:pageshadow="0"
     inkscape:pageopacity="0"
     inkscape:pagecheckerboard="1"
     inkscape:document-units="mm"
     showgrid="false"
     inkscape:zoom="0.70710678"
     inkscape:cx="529.62298"
     inkscape:cy="204.35386"
     inkscape:window-width="1366"
     inkscape:window-height="704"
     inkscape:window-x="0"
     inkscape:window-y="27"
     inkscape:window-maximized="1"
     inkscape:current-layer="layer1"
     units="px"
     width="1024px"
     height="575px"
     inkscape:lockguides="false" />
  <defs
     id="defs2">
    <inkscape:path-effect
       effect="powerstroke"
       id="path-effect3337"
       is_visible="true"
       lpeversion="1"
       offset_points="2,1.2033223"
       not_jump="false"
       sort_points="true"
       interpolator_type="CentripetalCatmullRom"
       interpolator_beta="0.2"
       start_linecap_type="zerowidth"
       linejoin_type="round"
       miter_limit="4"
       scale_width="1.5"
       end_linecap_type="zerowidth" />
    <inkscape:path-effect
       effect="powerstroke"
       id="path-effect3335"
       is_visible="true"
       lpeversion="1"
       offset_points="2,1.2033223"
       not_jump="false"
       sort_points="true"
       interpolator_type="CentripetalCatmullRom"
       interpolator_beta="0.2"
       start_linecap_type="zerowidth"
       linejoin_type="round"
       miter_limit="4"
       scale_width="1.5"
       end_linecap_type="zerowidth" />
    <inkscape:path-effect
       effect="skeletal"
       id="path-effect3333"
       is_visible="true"
       lpeversion="1"
       pattern="M 0,0 H 1"
       copytype="single_stretched"
       prop_scale="1"
       scale_y_rel="false"
       spacing="0"
       normal_offset="0"
       tang_offset="0"
       prop_units="false"
       vertical_pattern="false"
       hide_knot="false"
       fuse_tolerance="0" />
    <inkscape:path-effect
       effect="offset"
       id="path-effect3331"
       is_visible="true"
       lpeversion="1"
       linejoin_type="miter"
       unit="mm"
       offset="10"
       miter_limit="4"
       attempt_force_join="false"
       update_on_knot_move="true" />
    <inkscape:path-effect
       effect="skeletal"
       id="path-effect3329"
       is_visible="true"
       lpeversion="1"
       pattern="M 0,0 H 1"
       copytype="single_stretched"
       prop_scale="1.07"
       scale_y_rel="false"
       spacing="0"
       normal_offset="0"
       tang_offset="0"
       prop_units="false"
       vertical_pattern="false"
       hide_knot="false"
       fuse_tolerance="0" />
    <inkscape:path-effect
       effect="powerclip"
       id="path-effect1632"
       is_visible="true"
       lpeversion="1"
       inverse="true"
       flatten="false"
       hide_clip="false"
       message="Use fill-rule evenodd on &lt;b&gt;fill and stroke&lt;/b&gt; dialog if no flatten result after convert clip to paths." />
    <clipPath
       clipPathUnits="userSpaceOnUse"
       id="clipPath1628">
      <path
         id="lpe_path-effect1632"
         style="fill:#ffffff;stroke-width:0.207481"
         class="powerclip"
         d="M 82.101953,72.236154 H 119.97495 V 110.10915 H 82.101953 Z m 29.865197,18.936499 a 10.928697,10.928697 0 0 0 -10.9287,-10.928696 10.928697,10.928697 0 0 0 -10.928694,10.928696 10.928697,10.928697 0 0 0 10.928694,10.928697 10.928697,10.928697 0 0 0 10.9287,-10.928697 z" />
    </clipPath>
  </defs>
  <g
     inkscape:label="Layer 1"
     inkscape:groupmode="layer"
     id="layer1">
    <image
       xlink:href="https://app.brandmark.io/v2/icon_large/?id=77459"
       id="container"
       x="23.97665"
       y="-27.070326"
       width="221.95926"
       height="221.95926"
       style="display:none" />
    <image
       xlink:href=""
       id="icon_container"
       style="display:none"
       x="-183.11162"
       y="-99.682274"
       width="0"
       height="0" />
    <path
       id="path49635"
       style="font-style:normal;font-weight:800;font-size:72px;line-height:1;font-family:'Montserrat ExtraBold Alt1';font-variant-ligatures:none;text-align:center;text-anchor:middle;display:none"
       d="m -11.776357,-103.45504 c 1.9643395,1.0654 4.1950299,1.56481 6.6587777,1.56481 2.4637477,0 4.66114426,-0.49941 6.6254836,-1.56481 1.9643394,-1.03211 3.4958583,-2.46375 4.6278505,-4.32821 1.1319922,-1.83116 1.6979883,-3.89538 1.6979883,-6.22595 0,-2.29728 -0.5659961,-4.3615 -1.6979883,-6.22596 -1.1319922,-1.83117 -2.6635111,-3.2628 -4.6278505,-4.32821 -1.96433934,-1.03211 -4.1617359,-1.56481 -6.6254836,-1.56481 -2.4637478,0 -4.6944382,0.5327 -6.6587777,1.56481 -1.964339,1.06541 -3.495858,2.49704 -4.62785,4.32821 -1.131993,1.86446 -1.664695,3.92868 -1.664695,6.22596 0,2.33057 0.532702,4.39479 1.664695,6.22595 1.131992,1.86446 2.663511,3.2961 4.62785,4.32821 z m 9.8549909,-4.72773 c -0.9655228,0.56599 -2.0309272,0.83234 -3.1962132,0.83234 -1.19858,0 -2.2639844,-0.26635 -3.1962133,-0.83234 -0.9655227,-0.53271 -1.7312824,-1.33176 -2.2639844,-2.33058 -0.565996,-0.99881 -0.832347,-2.1641 -0.832347,-3.49585 0,-1.29847 0.266351,-2.46375 0.832347,-3.46257 0.532702,-0.99882 1.2984617,-1.79787 2.2639844,-2.36386 0.9322289,-0.53271 1.9976333,-0.83235 3.1962133,-0.83235 1.165286,0 2.2306904,0.29964 3.1962132,0.83235 0.93222886,0.56599 1.69798828,1.36504 2.26398437,2.36386 0.53270221,0.99882 0.83234723,2.1641 0.83234723,3.46257 0,1.33175 -0.29964502,2.49704 -0.83234723,3.49585 -0.56599609,0.99882 -1.33175551,1.79787 -2.26398437,2.33058 z"
       stroke-width="0"
       stroke-linejoin="miter"
       stroke-miterlimit="2"
       fill="#fcfcfc"
       stroke="#fcfcfc" />
    <g
       id="g2927"
       style="fill:#f7df1e;fill-opacity:1"
       transform="matrix(0.55643441,0,0,0.55643441,-154.77594,-124.81272)">
      <path
         id="path49649"
         style="font-style:normal;font-weight:800;font-size:72px;line-height:1;font-family:'Montserrat ExtraBold Alt1';font-variant-ligatures:none;text-align:center;text-anchor:middle;fill:#f7df1e;fill-opacity:1"
         d="m 754.94638,350.50298 c 1.31471,1.31472 2.92823,1.91232 4.84056,1.91232 1.91232,0 3.52583,-0.5976 4.84056,-1.91232 1.31471,-1.25496 1.97208,-2.86848 1.97208,-4.84056 0,-1.97208 -0.65737,-3.5856 -1.91232,-4.84056 -1.31473,-1.1952 -2.92824,-1.85256 -4.90032,-1.85256 -1.97209,0 -3.58561,0.65736 -4.90032,1.85256 -1.31473,1.25496 -1.91233,2.86848 -1.91233,4.84056 0,1.97208 0.65736,3.5856 1.97209,4.84056 z"
         stroke-width="0"
         stroke-linejoin="miter"
         stroke-miterlimit="2"
         fill="#fcfcfc"
         stroke="#fcfcfc" />
      <path
         id="path49651"
         style="font-style:normal;font-weight:800;font-size:72px;line-height:1;font-family:'Montserrat ExtraBold Alt1';font-variant-ligatures:none;text-align:center;text-anchor:middle;fill:#f7df1e;fill-opacity:1"
         d="m 779.71648,351.16034 c 2.50992,1.07568 5.25888,1.55376 8.36641,1.55376 5.25888,0 9.26279,-1.31472 12.01176,-4.06368 2.74896,-2.6892 4.12343,-6.75288 4.12343,-12.19104 v -26.41392 h -26.17487 v 9.14328 h 14.46192 v 17.98776 c 0,2.03184 -0.47809,3.52584 -1.37449,4.54176 -0.89639,1.07568 -2.21112,1.55376 -3.8844,1.55376 -2.62944,0 -5.01984,-1.43424 -7.23095,-4.36248 l -6.45409,7.64928 c 1.55377,2.03184 3.64536,3.52584 6.15528,4.60152 z"
         stroke-width="0"
         stroke-linejoin="miter"
         stroke-miterlimit="2"
         fill="#fcfcfc"
         stroke="#fcfcfc" />
      <path
         id="path49653"
         style="font-style:normal;font-weight:800;font-size:72px;line-height:1;font-family:'Montserrat ExtraBold Alt1';font-variant-ligatures:none;text-align:center;text-anchor:middle;fill:#f7df1e;fill-opacity:1"
         d="m 820.36501,351.45914 c 3.16728,0.83664 6.45408,1.25496 9.8604,1.25496 3.94416,0 7.35048,-0.5976 10.1592,-1.7928 2.74896,-1.1952 4.84056,-2.86848 6.2748,-4.90032 1.37448,-2.03184 2.0916,-4.30272 2.0916,-6.81264 0,-2.86848 -0.77688,-5.19912 -2.33064,-6.8724 -1.55376,-1.67328 -3.34656,-2.92824 -5.43816,-3.70512 -2.0916,-0.77688 -4.72104,-1.494 -7.88832,-2.21112 -2.86848,-0.5976 -4.90032,-1.13544 -6.15528,-1.73304 -1.31472,-0.53784 -1.91232,-1.37448 -1.91232,-2.50992 0,-1.07568 0.53784,-1.97208 1.61352,-2.6892 1.07568,-0.71712 2.74896,-1.07568 5.13936,-1.07568 3.70512,0 7.58952,1.07568 11.59344,3.22704 l 3.64536,-8.78472 c -2.03184,-1.1952 -4.42224,-2.0916 -7.05168,-2.6892 -2.6892,-0.5976 -5.3784,-0.95616 -8.12736,-0.95616 -4.06368,0 -7.47,0.5976 -10.21896,1.7928 -2.74896,1.1952 -4.84056,2.86848 -6.21504,4.90032 -1.43424,2.03184 -2.0916,4.36248 -2.0916,6.8724 0,2.92824 0.71712,5.25888 2.27088,6.93216 1.494,1.73304 3.2868,2.988 5.43816,3.76488 2.0916,0.77688 4.72104,1.494 7.88832,2.15136 2.86848,0.65736 4.90032,1.25496 6.21504,1.85256 1.31472,0.5976 1.97208,1.43424 1.97208,2.62944 0,2.27088 -2.27088,3.40632 -6.81264,3.40632 -2.3904,0 -4.84056,-0.35856 -7.29072,-1.13544 -2.50992,-0.71712 -4.66128,-1.73304 -6.51384,-2.988 l -3.8844,8.72496 c 1.97208,1.43424 4.54176,2.50992 7.7688,3.34656 z"
         stroke-width="0"
         stroke-linejoin="miter"
         stroke-miterlimit="2"
         fill="#fcfcfc"
         stroke="#fcfcfc" />
    </g>
    <g
       id="g691"
       style="fill:#8265df;fill-opacity:1"
       transform="matrix(0.55643441,0,0,0.55643441,-154.77594,-124.81272)">
      <path
         id="path49631"
         style="font-style:normal;font-weight:800;font-size:72px;line-height:1;font-family:'Montserrat ExtraBold Alt1';font-variant-ligatures:none;text-align:center;text-anchor:middle;fill:#8265df;fill-opacity:1"
         d="m 315.92798,334.00922 c -1.37448,-1.7928 -3.2868,-3.10752 -5.61744,-3.94416 1.73304,-0.8964 3.16728,-2.15136 4.12344,-3.70512 0.95617,-1.55376 1.494,-3.34656 1.494,-5.3784 0,-3.34656 -1.43424,-5.976 -4.1832,-7.94808 -2.80872,-1.97208 -6.8724,-2.988 -12.19104,-2.988 h -21.39408 v 8.54568 h 19.84033 c 3.94415,0 5.97599,1.37448 5.97599,4.00392 0,2.74896 -2.03184,4.06368 -5.97599,4.06368 h -19.84033 v 8.18712 h 21.63312 c 4.12344,0 6.21504,1.43424 6.21504,4.24296 0,2.86848 -2.0916,4.24296 -6.21504,4.24296 h -21.63312 v 8.54568 h 22.58928 c 5.55768,0 9.80064,-0.95616 12.78864,-2.988 2.92824,-1.97208 4.42224,-4.7808 4.42224,-8.48592 0,-2.50992 -0.71712,-4.60152 -2.03184,-6.39432 z"
         stroke-width="0"
         stroke-linejoin="miter"
         stroke-miterlimit="2"
         fill="#fcfcfc"
         stroke="#fcfcfc" />
      <path
         id="path49633"
         style="font-style:normal;font-weight:800;font-size:72px;line-height:1;font-family:'Montserrat ExtraBold Alt1';font-variant-ligatures:none;text-align:center;text-anchor:middle;fill:#8265df;fill-opacity:1"
         d="m 356.98829,338.73026 c 2.56968,-1.25496 4.60152,-2.988 6.03576,-5.25888 1.43424,-2.27088 2.15136,-4.90032 2.15136,-7.94808 0,-3.10752 -0.77688,-5.85648 -2.27088,-8.18712 -1.55375,-2.33064 -3.70512,-4.12344 -6.45408,-5.3784 -2.80871,-1.25496 -6.09552,-1.91232 -9.8604,-1.91232 h -19.1232 v 9.32256 h 18.40608 c 2.3904,0 4.24296,0.53784 5.49793,1.61352 1.19519,1.07568 1.85255,2.62944 1.85255,4.54176 0,1.97208 -0.65736,3.46608 -1.85255,4.54176 -1.25497,1.07568 -3.10753,1.55376 -5.49793,1.55376 h -18.40608 v 20.25864 h 11.83248 V 340.7621 h 6.45408 l 7.58952,11.11536 h 12.66913 z"
         stroke-width="0"
         stroke-linejoin="miter"
         stroke-miterlimit="2"
         fill="#fcfcfc"
         stroke="#fcfcfc" />
      <path
         id="path49637"
         style="font-style:normal;font-weight:800;font-size:72px;line-height:1;font-family:'Montserrat ExtraBold Alt1';font-variant-ligatures:none;text-align:center;text-anchor:middle;fill:#8265df;fill-opacity:1"
         d="m 449.98985,310.04546 h -12.19104 l 10.63729,32.92776 5.97599,-18.76464 z m 45.35784,0 -8.78472,26.95176 -4.90032,14.88024 h 11.41416 l 13.56552,-41.832 z m -17.21088,0 H 467.2605 l -8.84448,26.71272 -4.66129,15.11928 h 10.27872 l 8.3664,-25.45776 4.42224,14.10336 5.61744,-16.61328 z"
         stroke-width="0"
         stroke-linejoin="miter"
         stroke-miterlimit="2"
         fill="#fcfcfc"
         stroke="#fcfcfc" />
      <path
         id="path49639"
         style="font-style:normal;font-weight:800;font-size:72px;line-height:1;font-family:'Montserrat ExtraBold Alt1';font-variant-ligatures:none;text-align:center;text-anchor:middle;fill:#8265df;fill-opacity:1"
         d="m 518.98423,351.45914 c 3.16727,0.83664 6.45408,1.25496 9.86039,1.25496 3.94417,0 7.35048,-0.5976 10.15921,-1.7928 2.74895,-1.1952 4.84055,-2.86848 6.2748,-4.90032 1.37447,-2.03184 2.09159,-4.30272 2.09159,-6.81264 0,-2.86848 -0.77688,-5.19912 -2.33064,-6.8724 -1.55376,-1.67328 -3.34656,-2.92824 -5.43816,-3.70512 -2.0916,-0.77688 -4.72104,-1.494 -7.88832,-2.21112 -2.86848,-0.5976 -4.90032,-1.13544 -6.15527,-1.73304 -1.31472,-0.53784 -1.91233,-1.37448 -1.91233,-2.50992 0,-1.07568 0.53785,-1.97208 1.61353,-2.6892 1.07567,-0.71712 2.74896,-1.07568 5.13936,-1.07568 3.70512,0 7.58952,1.07568 11.59343,3.22704 l 3.64536,-8.78472 c -2.03184,-1.1952 -4.42224,-2.0916 -7.05168,-2.6892 -2.6892,-0.5976 -5.3784,-0.95616 -8.12735,-0.95616 -4.06369,0 -7.47,0.5976 -10.21896,1.7928 -2.74897,1.1952 -4.84056,2.86848 -6.21504,4.90032 -1.43425,2.03184 -2.09161,4.36248 -2.09161,6.8724 0,2.92824 0.71712,5.25888 2.27089,6.93216 1.49399,1.73304 3.28679,2.988 5.43815,3.76488 2.09161,0.77688 4.72104,1.494 7.88832,2.15136 2.86849,0.65736 4.90032,1.25496 6.21504,1.85256 1.31472,0.5976 1.97208,1.43424 1.97208,2.62944 0,2.27088 -2.27088,3.40632 -6.81264,3.40632 -2.39039,0 -4.84055,-0.35856 -7.29071,-1.13544 -2.50992,-0.71712 -4.66129,-1.73304 -6.51385,-2.988 l -3.8844,8.72496 c 1.97208,1.43424 4.54176,2.50992 7.76881,3.34656 z"
         stroke-width="0"
         stroke-linejoin="miter"
         stroke-miterlimit="2"
         fill="#fcfcfc"
         stroke="#fcfcfc" />
      <path
         id="path49641"
         style="font-style:normal;font-weight:800;font-size:72px;line-height:1;font-family:'Montserrat ExtraBold Alt1';font-variant-ligatures:none;text-align:center;text-anchor:middle;fill:#8265df;fill-opacity:1"
         d="m 565.12133,349.96514 c 3.46608,1.85256 7.41024,2.74896 11.83248,2.74896 3.82464,0 7.23096,-0.65736 10.33848,-2.03184 3.04776,-1.31472 5.61744,-3.2868 7.64928,-5.85648 l -7.52976,-6.81264 c -2.74896,3.2868 -6.03576,4.90032 -9.8604,4.90032 -2.27088,0 -4.30272,-0.47808 -6.09552,-1.494 -1.7928,-0.95616 -3.16728,-2.3904 -4.12344,-4.1832 -0.95616,-1.7928 -1.43424,-3.8844 -1.43424,-6.2748 0,-2.33064 0.47808,-4.42224 1.43424,-6.21504 0.95616,-1.7928 2.33064,-3.22704 4.12344,-4.24296 1.7928,-0.95616 3.82464,-1.494 6.09552,-1.494 3.82464,0 7.11144,1.67328 9.8604,4.90032 l 7.52976,-6.81264 c -2.03184,-2.50992 -4.60152,-4.482 -7.64928,-5.85648 -3.10752,-1.31472 -6.51384,-2.03184 -10.33848,-2.03184 -4.42224,0 -8.3664,0.95616 -11.83248,2.80872 -3.46608,1.85256 -6.21504,4.42224 -8.18712,7.70904 -2.03184,3.34656 -2.988,7.05168 -2.988,11.23488 0,4.1832 0.95616,7.94808 2.988,11.23488 1.97208,3.34656 4.72104,5.91624 8.18712,7.7688 z"
         stroke-width="0"
         stroke-linejoin="miter"
         stroke-miterlimit="2"
         fill="#fcfcfc"
         stroke="#fcfcfc" />
      <path
         id="path49643"
         style="font-style:normal;font-weight:800;font-size:72px;line-height:1;font-family:'Montserrat ExtraBold Alt1';font-variant-ligatures:none;text-align:center;text-anchor:middle;fill:#8265df;fill-opacity:1"
         d="m 611.74679,349.90538 c 3.52584,1.91232 7.52976,2.80872 11.952,2.80872 4.42224,0 8.3664,-0.8964 11.89224,-2.80872 3.52584,-1.85256 6.2748,-4.42224 8.30664,-7.7688 2.03184,-3.2868 3.04776,-6.99192 3.04776,-11.17512 0,-4.12344 -1.01592,-7.82856 -3.04776,-11.17512 -2.03184,-3.2868 -4.7808,-5.85648 -8.30664,-7.7688 -3.52584,-1.85256 -7.47,-2.80872 -11.89224,-2.80872 -4.42224,0 -8.42616,0.95616 -11.952,2.80872 -3.52584,1.91232 -6.2748,4.482 -8.30664,7.7688 -2.03184,3.34656 -2.988,7.05168 -2.988,11.17512 0,4.1832 0.95616,7.88832 2.988,11.17512 2.03184,3.34656 4.7808,5.91624 8.30664,7.7688 z m 17.68896,-8.48592 c -1.73304,1.01592 -3.64536,1.494 -5.73696,1.494 -2.15136,0 -4.06368,-0.47808 -5.73696,-1.494 -1.73304,-0.95616 -3.10752,-2.3904 -4.06368,-4.1832 -1.01592,-1.7928 -1.494,-3.8844 -1.494,-6.2748 0,-2.33064 0.47808,-4.42224 1.494,-6.21504 0.95616,-1.7928 2.33064,-3.22704 4.06368,-4.24296 1.67328,-0.95616 3.5856,-1.494 5.73696,-1.494 2.0916,0 4.00392,0.53784 5.73696,1.494 1.67328,1.01592 3.04776,2.45016 4.06368,4.24296 0.95616,1.7928 1.494,3.8844 1.494,6.21504 0,2.3904 -0.53784,4.482 -1.494,6.2748 -1.01592,1.7928 -2.3904,3.22704 -4.06368,4.1832 z"
         stroke-width="0"
         stroke-linejoin="miter"
         stroke-miterlimit="2"
         fill="#fcfcfc"
         stroke="#fcfcfc" />
      <path
         id="path49645"
         style="font-style:normal;font-weight:800;font-size:72px;line-height:1;font-family:'Montserrat ExtraBold Alt1';font-variant-ligatures:none;text-align:center;text-anchor:middle;fill:#8265df;fill-opacity:1"
         d="m 685.98416,338.73026 c 2.56968,-1.25496 4.60153,-2.988 6.03576,-5.25888 1.43424,-2.27088 2.15136,-4.90032 2.15136,-7.94808 0,-3.10752 -0.77687,-5.85648 -2.27088,-8.18712 -1.55375,-2.33064 -3.70511,-4.12344 -6.45407,-5.3784 -2.80872,-1.25496 -6.09553,-1.91232 -9.8604,-1.91232 h -19.12321 v 9.32256 h 18.40608 c 2.3904,0 4.24296,0.53784 5.49793,1.61352 1.19519,1.07568 1.85255,2.62944 1.85255,4.54176 0,1.97208 -0.65736,3.46608 -1.85255,4.54176 -1.25497,1.07568 -3.10753,1.55376 -5.49793,1.55376 h -18.40608 v 20.25864 h 11.83249 V 340.7621 h 6.45407 l 7.58952,11.11536 h 12.66913 z"
         stroke-width="0"
         stroke-linejoin="miter"
         stroke-miterlimit="2"
         fill="#fcfcfc"
         stroke="#fcfcfc" />
      <path
         id="path49647"
         style="font-style:normal;font-weight:800;font-size:72px;line-height:1;font-family:'Montserrat ExtraBold Alt1';font-variant-ligatures:none;text-align:center;text-anchor:middle;fill:#8265df;fill-opacity:1"
         d="m 744.23761,319.90586 c -1.97208,-3.10752 -4.72104,-5.55768 -8.24688,-7.29072 -3.5856,-1.67328 -7.64928,-2.56968 -12.19104,-2.56968 h -19.78056 v 9.44208 h 19.30248 c 3.5856,0 6.45408,1.01592 8.60544,3.04776 2.15136,2.0916 3.2868,4.90032 3.2868,8.42616 0,3.5856 -1.13544,6.39432 -3.2868,8.42616 -2.15136,2.03184 -5.01984,3.04776 -8.60544,3.04776 h -7.47 v -11.11536 h -11.83248 v 20.55744 h 19.78056 c 4.54176,0 8.60544,-0.83664 12.19104,-2.56968 3.52584,-1.67328 6.2748,-4.12344 8.24688,-7.29072 1.91232,-3.10752 2.92824,-6.81264 2.92824,-11.0556 0,-4.1832 -1.01592,-7.88832 -2.92824,-11.0556 z"
         stroke-width="0"
         stroke-linejoin="miter"
         stroke-miterlimit="2"
         fill="#fcfcfc"
         stroke="#fcfcfc" />
    </g>
    <path
       class="st0"
       id="circle12679"
       style="fill:#8265df;fill-rule:nonzero;stroke:none"
       d="m 82.851719,59.569622 c 0,1.412581 -0.216577,3.27408 -1.065668,5.281557 -0.620772,1.467669 -1.564823,2.96987 -2.908935,4.313981 -1.167022,1.167023 -2.61386,2.189844 -4.313981,2.908935 -1.578251,0.667544 -3.359528,1.065668 -5.281557,1.065668 -1.86226,-10e-7 -3.64682,-0.374233 -5.281555,-1.065667 -1.633435,-0.690885 -3.09359,-1.688543 -4.313983,-2.908935 -1.258692,-1.258692 -2.239023,-2.730133 -2.908934,-4.313981 -0.71877,-1.699362 -1.065668,-3.490132 -1.065668,-5.281558 0,-1.791426 0.346898,-3.582196 1.065668,-5.281558 0.669911,-1.583847 1.650242,-3.055289 2.908932,-4.313979 1.220395,-1.220394 2.68055,-2.218052 4.313983,-2.908936 1.634737,-0.691435 3.419297,-1.065667 5.281555,-1.065667 1.922031,0 3.703308,0.398123 5.281559,1.065667 1.700121,0.719091 3.146959,1.741912 4.313981,2.908935 1.344112,1.344111 2.288163,2.846312 2.908935,4.313981 0.849091,2.007477 1.065668,3.868976 1.065668,5.281557 z m 3.609966,0 c 0,-1.780155 -0.273231,-4.140075 -1.350839,-6.687827 -0.787198,-1.861147 -1.982456,-3.761701 -3.681097,-5.460343 -1.474545,-1.474545 -3.305041,-2.769482 -5.460344,-3.681098 -2.003718,-0.847501 -4.261964,-1.350839 -6.687827,-1.350839 -2.350096,0 -4.612503,0.473051 -6.687824,1.350837 -2.07092,0.875926 -3.918267,2.139021 -5.460346,3.681099 -1.590543,1.590544 -2.831713,3.452173 -3.681098,5.460343 -0.912437,2.157243 -1.350839,4.427523 -1.350839,6.687828 0,2.260305 0.438402,4.530585 1.350839,6.687828 0.849385,2.00817 2.090555,3.869799 3.681095,5.46034 1.542082,1.542082 3.389429,2.805176 5.460346,3.6811 2.075324,0.877788 4.337731,1.350839 6.687824,1.350839 2.425866,0 4.684112,-0.503337 6.68783,-1.350839 2.155303,-0.911616 3.985799,-2.206553 5.460344,-3.681097 1.698641,-1.698642 2.893899,-3.599197 3.681097,-5.460344 1.077608,-2.547752 1.350839,-4.907672 1.350839,-6.687827 z"
       sodipodi:type="arc"
       sodipodi:ry="15.375124"
       sodipodi:rx="15.375124"
       sodipodi:cy="59.569622"
       sodipodi:cx="69.281578"
       inkscape:path-effect="#path-effect3335" />
    <path
       class="st0"
       id="ellipse12681"
       style="fill:#8265df;fill-rule:nonzero;stroke:none"
       inkscape:path-effect="#path-effect3337"
       sodipodi:type="arc"
       sodipodi:cx="69.281578"
       sodipodi:cy="59.569622"
       sodipodi:rx="7.0962114"
       sodipodi:ry="15.375124"
       d="m 74.572806,59.569622 c 0,1.515645 -0.107715,3.505307 -0.524215,5.63886 -0.305079,1.562791 -0.761393,3.118769 -1.388085,4.476601 -0.277283,0.60078 -0.579673,1.144188 -0.901759,1.615648 -0.307407,0.449973 -0.622153,0.818809 -0.934499,1.105049 -0.30126,0.276082 -0.585466,0.461845 -0.84412,0.576523 -0.247423,0.109698 -0.477462,0.15746 -0.69855,0.15746 -0.217387,0 -0.447473,-0.04614 -0.698549,-0.15746 -0.253749,-0.112504 -0.538168,-0.296141 -0.844121,-0.576523 -0.306127,-0.280542 -0.621378,-0.646713 -0.934498,-1.105048 -0.314754,-0.460728 -0.61809,-1.00103 -0.901759,-1.615648 -0.585699,-1.269014 -1.059424,-2.793008 -1.388085,-4.4766 -0.35218,-1.804065 -0.524216,-3.718089 -0.524216,-5.638862 0,-1.920772 0.172036,-3.834797 0.524216,-5.638862 0.328661,-1.683592 0.802386,-3.207586 1.388084,-4.476598 0.28367,-0.61462 0.587006,-1.154922 0.901759,-1.615649 0.313121,-0.458336 0.628372,-0.824507 0.934498,-1.105048 0.305954,-0.280383 0.590373,-0.46402 0.844121,-0.576523 0.251077,-0.111319 0.481163,-0.15746 0.69855,-0.15746 0.221088,0 0.451127,0.04776 0.69855,0.15746 0.258654,0.114677 0.54286,0.300441 0.84412,0.576522 0.312346,0.28624 0.627092,0.655076 0.934498,1.105048 0.322087,0.471461 0.624477,1.014869 0.90176,1.615649 0.626692,1.357832 1.083006,2.91381 1.388084,4.476598 0.416501,2.133556 0.524216,4.123218 0.524216,5.638863 z m 3.609967,0 c 0,-1.67709 -0.11835,-3.908847 -0.591095,-6.330521 -0.344755,-1.766031 -0.875814,-3.612807 -1.653469,-5.297726 -0.346492,-0.750733 -0.744654,-1.47464 -1.198681,-2.139232 -0.431765,-0.632005 -0.922368,-1.222478 -1.476289,-1.730104 -0.534813,-0.490115 -1.141228,-0.914331 -1.819942,-1.215249 -0.66689,-0.295675 -1.39335,-0.467275 -2.161719,-0.467275 -0.756671,0 -1.483279,0.16648 -2.161717,0.467274 -0.668082,0.296204 -1.273893,0.714837 -1.819944,1.21525 -0.544181,0.4987 -1.035574,1.084999 -1.476287,1.730102 -0.444334,0.650403 -0.843746,1.370204 -1.198683,2.139233 -0.729333,1.580222 -1.280916,3.389298 -1.653468,5.297724 -0.400685,2.05254 -0.591096,4.199566 -0.591096,6.330524 0,2.130958 0.190411,4.277984 0.591096,6.330524 0.372552,1.908426 0.924135,3.717502 1.653467,5.297721 0.354938,0.769032 0.75435,1.488833 1.198682,2.139235 0.440715,0.645104 0.932108,1.231403 1.476287,1.730102 0.546053,0.500414 1.151864,0.919047 1.819945,1.21525 0.678439,0.300795 1.405047,0.467275 2.161718,0.467275 0.768369,0 1.494829,-0.1716 2.161719,-0.467275 0.678714,-0.300918 1.285129,-0.725133 1.819942,-1.215249 0.553921,-0.507626 1.044524,-1.098099 1.476288,-1.730101 0.454028,-0.664594 0.85219,-1.388502 1.198682,-2.139234 0.777655,-1.68492 1.308714,-3.531696 1.653468,-5.297723 0.472746,-2.421678 0.591096,-4.653435 0.591096,-6.330525 z" />
    <path
       id="line3677"
       style="fill:none;stroke:#8265df;stroke-width:2.40665;stroke-linecap:round;stroke-linejoin:round;stroke-miterlimit:10"
       class="st0"
       d="m 54.047575,60.91608 h 30.75025 M 53.906451,59.569622 H 84.6567" />
  </g>
  <style
     type="text/css"
     id="style12677">
	.st0{fill:none;stroke:#000000;stroke-width:2;stroke-linecap:round;stroke-linejoin:round;stroke-miterlimit:10;}
</style>
</svg>
