<?xml version="1.0" encoding="UTF-8" standalone="no"?>
<!-- Created with Inkscape (http://www.inkscape.org/) -->

<svg
   width="1200"
   height="450"
   viewBox="0 0 317.5 119.0629"
   version="1.1"
   id="svg5"
   inkscape:version="1.1.2 (0a00cf5339, 2022-02-04)"
   sodipodi:docname="browscord.js_extended.svg"
   xmlns:inkscape="http://www.inkscape.org/namespaces/inkscape"
   xmlns:sodipodi="http://sodipodi.sourceforge.net/DTD/sodipodi-0.dtd"
   xmlns:xlink="http://www.w3.org/1999/xlink"
   xmlns="http://www.w3.org/2000/svg"
   xmlns:svg="http://www.w3.org/2000/svg">
  <sodipodi:namedview
     id="namedview7"
     pagecolor="#505050"
     bordercolor="#ffffff"
     borderopacity="1"
     inkscape:pageshadow="0"
     inkscape:pageopacity="0"
     inkscape:pagecheckerboard="1"
     inkscape:document-units="mm"
     showgrid="false"
     inkscape:zoom="0.35355339"
     inkscape:cx="86.267027"
     inkscape:cy="145.664"
     inkscape:window-width="1366"
     inkscape:window-height="704"
     inkscape:window-x="0"
     inkscape:window-y="27"
     inkscape:window-maximized="1"
     inkscape:current-layer="layer1"
     units="px"
     width="1024px"
     height="575px"
     inkscape:lockguides="false" />
  <defs
     id="defs2">
    <inkscape:path-effect
       effect="powerstroke"
       id="path-effect3337"
       is_visible="true"
       lpeversion="1"
       offset_points="2,1"
       not_jump="false"
       sort_points="true"
       interpolator_type="CentripetalCatmullRom"
       interpolator_beta="0.2"
       start_linecap_type="zerowidth"
       linejoin_type="round"
       miter_limit="4"
       scale_width="1.5"
       end_linecap_type="zerowidth" />
    <inkscape:path-effect
       effect="powerstroke"
       id="path-effect3335"
       is_visible="true"
       lpeversion="1"
       offset_points="2,1"
       not_jump="false"
       sort_points="true"
       interpolator_type="CentripetalCatmullRom"
       interpolator_beta="0.2"
       start_linecap_type="zerowidth"
       linejoin_type="round"
       miter_limit="4"
       scale_width="1.5"
       end_linecap_type="zerowidth" />
    <inkscape:path-effect
       effect="skeletal"
       id="path-effect3333"
       is_visible="true"
       lpeversion="1"
       pattern="M 0,0 H 1"
       copytype="single_stretched"
       prop_scale="1"
       scale_y_rel="false"
       spacing="0"
       normal_offset="0"
       tang_offset="0"
       prop_units="false"
       vertical_pattern="false"
       hide_knot="false"
       fuse_tolerance="0" />
    <inkscape:path-effect
       effect="offset"
       id="path-effect3331"
       is_visible="true"
       lpeversion="1"
       linejoin_type="miter"
       unit="mm"
       offset="10"
       miter_limit="4"
       attempt_force_join="false"
       update_on_knot_move="true" />
    <inkscape:path-effect
       effect="skeletal"
       id="path-effect3329"
       is_visible="true"
       lpeversion="1"
       pattern="M 0,0 H 1"
       copytype="single_stretched"
       prop_scale="1.07"
       scale_y_rel="false"
       spacing="0"
       normal_offset="0"
       tang_offset="0"
       prop_units="false"
       vertical_pattern="false"
       hide_knot="false"
       fuse_tolerance="0" />
    <inkscape:path-effect
       effect="powerclip"
       id="path-effect1632"
       is_visible="true"
       lpeversion="1"
       inverse="true"
       flatten="false"
       hide_clip="false"
       message="Use fill-rule evenodd on &lt;b&gt;fill and stroke&lt;/b&gt; dialog if no flatten result after convert clip to paths." />
    <clipPath
       clipPathUnits="userSpaceOnUse"
       id="clipPath1628">
      <path
         id="lpe_path-effect1632"
         style="fill:#ffffff;stroke-width:0.207481"
         class="powerclip"
         d="M 82.101953,72.236154 H 119.97495 V 110.10915 H 82.101953 Z m 29.865197,18.936499 a 10.928697,10.928697 0 0 0 -10.9287,-10.928696 10.928697,10.928697 0 0 0 -10.928694,10.928696 10.928697,10.928697 0 0 0 10.928694,10.928697 10.928697,10.928697 0 0 0 10.9287,-10.928697 z" />
    </clipPath>
  </defs>
  <g
     inkscape:label="Layer 1"
     inkscape:groupmode="layer"
     id="layer1">
    <image
       xlink:href="https://app.brandmark.io/v2/icon_large/?id=77459"
       id="container"
       x="23.97665"
       y="-27.070326"
       width="221.95926"
       height="221.95926"
       style="display:none" />
    <image
       xlink:href=""
       id="icon_container"
       style="display:none"
       x="-183.11162"
       y="-99.682274"
       width="0"
       height="0" />
    <path
       id="path49635"
       style="font-style:normal;font-weight:800;font-size:72px;line-height:1;font-family:'Montserrat ExtraBold Alt1';font-variant-ligatures:none;text-align:center;text-anchor:middle;display:none"
       d="m -11.776357,-103.45504 c 1.9643395,1.0654 4.1950299,1.56481 6.6587777,1.56481 2.4637477,0 4.66114426,-0.49941 6.6254836,-1.56481 1.9643394,-1.03211 3.4958583,-2.46375 4.6278505,-4.32821 1.1319922,-1.83116 1.6979883,-3.89538 1.6979883,-6.22595 0,-2.29728 -0.5659961,-4.3615 -1.6979883,-6.22596 -1.1319922,-1.83117 -2.6635111,-3.2628 -4.6278505,-4.32821 -1.96433934,-1.03211 -4.1617359,-1.56481 -6.6254836,-1.56481 -2.4637478,0 -4.6944382,0.5327 -6.6587777,1.56481 -1.964339,1.06541 -3.495858,2.49704 -4.62785,4.32821 -1.131993,1.86446 -1.664695,3.92868 -1.664695,6.22596 0,2.33057 0.532702,4.39479 1.664695,6.22595 1.131992,1.86446 2.663511,3.2961 4.62785,4.32821 z m 9.8549909,-4.72773 c -0.9655228,0.56599 -2.0309272,0.83234 -3.1962132,0.83234 -1.19858,0 -2.2639844,-0.26635 -3.1962133,-0.83234 -0.9655227,-0.53271 -1.7312824,-1.33176 -2.2639844,-2.33058 -0.565996,-0.99881 -0.832347,-2.1641 -0.832347,-3.49585 0,-1.29847 0.266351,-2.46375 0.832347,-3.46257 0.532702,-0.99882 1.2984617,-1.79787 2.2639844,-2.36386 0.9322289,-0.53271 1.9976333,-0.83235 3.1962133,-0.83235 1.165286,0 2.2306904,0.29964 3.1962132,0.83235 0.93222886,0.56599 1.69798828,1.36504 2.26398437,2.36386 0.53270221,0.99882 0.83234723,2.1641 0.83234723,3.46257 0,1.33175 -0.29964502,2.49704 -0.83234723,3.49585 -0.56599609,0.99882 -1.33175551,1.79787 -2.26398437,2.33058 z"
       stroke-width="0"
       stroke-linejoin="miter"
       stroke-miterlimit="2"
       fill="#fcfcfc"
       stroke="#fcfcfc" />
    <g
       id="g4401"
       transform="matrix(1.2032718,0,0,1.2032718,285.21394,-23.809581)">
      <g
         id="slogan"
         style="font-style:oblique;font-weight:700;font-size:32px;line-height:1;font-family:'Uni Neue';font-variant-ligatures:none;text-align:center;text-anchor:middle"
         transform="matrix(0.46241511,0,0,0.46241511,-423.56735,-110.2221)">
        <path
           id="path49580"
           style="font-style:oblique;font-weight:700;font-size:32px;line-height:1;font-family:'Uni Neue';font-variant-ligatures:none;text-align:center;text-anchor:middle"
           d="m 330.7115,0 c 5.376,0 9.024,-2.144 10.112,-8.448 l 0.928,-5.28 c 1.088,-6.336 -2.56,-9.152 -7.232,-9.152 h -7.52 c -0.32,0 -0.544,0.192 -0.576,0.512 l -3.84,21.76 c -0.064,0.352 0.128,0.608 0.48,0.608 z m 0.032,-18.24 h 3.2 c 2.272,0 3.2,1.12 2.72,3.872 l -0.992,5.696 c -0.512,2.848 -1.92,4.032 -4.16,4.032 h -3.168 z"
           stroke-width="0"
           stroke-linejoin="miter"
           stroke-miterlimit="2"
           fill="#fcfcfc"
           stroke="#fcfcfc"
           transform="matrix(0.83,0,0,0.83,351.47724,434.6156)" />
        <path
           id="path49582"
           style="font-style:oblique;font-weight:700;font-size:32px;line-height:1;font-family:'Uni Neue';font-variant-ligatures:none;text-align:center;text-anchor:middle"
           d="m 346.919,0 c 0.352,0 0.544,-0.192 0.608,-0.512 l 2.752,-15.552 c 0.064,-0.352 -0.128,-0.576 -0.512,-0.576 h -3.712 c -0.32,0 -0.544,0.16 -0.576,0.48 l -2.752,15.552 C 342.663,-0.256 342.855,0 343.207,0 Z m 4.416,-21.28 c 0.32,-1.728 -0.704,-3.008 -2.336,-3.008 -1.472,0 -2.56,0.928 -2.816,2.336 -0.32,1.664 0.704,2.976 2.336,2.976 1.44,0 2.56,-0.992 2.816,-2.304 z"
           stroke-width="0"
           stroke-linejoin="miter"
           stroke-miterlimit="2"
           fill="#fcfcfc"
           stroke="#fcfcfc"
           transform="matrix(0.83,0,0,0.83,353.13724,434.6156)" />
        <path
           id="path49584"
           style="font-style:oblique;font-weight:700;font-size:32px;line-height:1;font-family:'Uni Neue';font-variant-ligatures:none;text-align:center;text-anchor:middle"
           d="m 364.609,-4.544 c 0.672,-3.744 -2.4,-5.28 -4.864,-5.824 -1.536,-0.352 -2.56,-0.64 -2.368,-1.6 0.128,-0.8 0.864,-1.056 2.048,-1.056 1.344,0 2.56,0.288 3.552,0.864 0.32,0.16 0.576,0.128 0.768,-0.16 l 1.888,-2.528 c 0.224,-0.288 0.192,-0.576 -0.128,-0.768 -1.728,-0.992 -3.424,-1.472 -5.632,-1.472 -3.872,0 -6.56,1.376 -7.232,4.608 -0.704,3.456 1.792,5.344 4.928,5.984 1.28,0.288 2.4,0.544 2.176,1.536 -0.16,0.736 -0.928,1.216 -2.464,1.216 -1.504,0 -2.912,-0.448 -4.16,-1.376 -0.288,-0.192 -0.544,-0.16 -0.768,0.128 l -1.824,2.496 c -0.192,0.256 -0.192,0.544 0.096,0.768 1.76,1.44 3.84,2.144 6.496,2.144 4,0 6.848,-1.568 7.488,-4.96 z"
           stroke-width="0"
           stroke-linejoin="miter"
           stroke-miterlimit="2"
           fill="#fcfcfc"
           stroke="#fcfcfc"
           transform="matrix(0.83,0,0,0.83,354.79724,434.6156)" />
        <path
           id="path49586"
           style="font-style:oblique;font-weight:700;font-size:32px;line-height:1;font-family:'Uni Neue';font-variant-ligatures:none;text-align:center;text-anchor:middle"
           d="m 378.7025,-0.96 c 0.352,-0.192 0.416,-0.448 0.256,-0.768 l -1.248,-2.752 c -0.16,-0.32 -0.448,-0.384 -0.768,-0.192 -1.024,0.608 -2.112,0.928 -3.008,0.928 -1.568,0 -2.432,-0.992 -2.048,-2.944 l 0.672,-3.776 c 0.288,-1.568 1.312,-2.464 3.008,-2.464 0.896,0 1.76,0.256 2.464,0.672 0.32,0.192 0.544,0.16 0.768,-0.096 l 1.888,-2.432 c 0.192,-0.288 0.16,-0.576 -0.096,-0.768 -1.28,-0.928 -2.848,-1.536 -4.864,-1.536 -4.064,0 -7.264,2.08 -7.968,6.112 l -0.704,3.968 c -0.8,4.544 1.824,7.424 6.144,7.424 1.92,0 3.776,-0.416 5.504,-1.376 z"
           stroke-width="0"
           stroke-linejoin="miter"
           stroke-miterlimit="2"
           fill="#fcfcfc"
           stroke="#fcfcfc"
           transform="matrix(0.83,0,0,0.83,356.45724,434.6156)" />
        <path
           id="path49588"
           style="font-style:oblique;font-weight:700;font-size:32px;line-height:1;font-family:'Uni Neue';font-variant-ligatures:none;text-align:center;text-anchor:middle"
           d="m 395.674,-5.92 0.736,-4.032 c 0.672,-3.904 -1.888,-7.136 -6.272,-7.136 -4.448,0 -7.584,2.4 -8.288,6.272 l -0.672,3.968 c -0.736,4.064 1.856,7.264 6.144,7.264 4.704,0 7.616,-2.304 8.352,-6.336 z m -9.696,-0.448 0.736,-4.128 c 0.256,-1.44 1.344,-2.4 2.88,-2.4 1.536,0 2.208,1.184 1.952,2.624 l -0.736,4.096 c -0.256,1.504 -1.28,2.4 -2.944,2.4 -1.504,0 -2.176,-1.024 -1.888,-2.592 z"
           stroke-width="0"
           stroke-linejoin="miter"
           stroke-miterlimit="2"
           fill="#fcfcfc"
           stroke="#fcfcfc"
           transform="matrix(0.83,0,0,0.83,358.11724,434.6156)" />
        <path
           id="path49590"
           style="font-style:oblique;font-weight:700;font-size:32px;line-height:1;font-family:'Uni Neue';font-variant-ligatures:none;text-align:center;text-anchor:middle"
           d="m 401.951,0 c 0.32,0 0.512,-0.192 0.576,-0.512 l 2.08,-11.808 c 0.544,-0.224 1.248,-0.384 2.08,-0.384 0.672,0 1.312,0.064 1.856,0.16 0.352,0.032 0.608,-0.128 0.64,-0.48 l 0.576,-3.136 c 0.064,-0.32 -0.096,-0.576 -0.448,-0.64 -0.928,-0.192 -1.792,-0.288 -2.656,-0.288 -2.016,0 -4.064,0.48 -5.92,1.344 -0.256,0.128 -0.416,0.32 -0.48,0.608 l -2.528,14.528 C 397.663,-0.256 397.855,0 398.239,0 Z"
           stroke-width="0"
           stroke-linejoin="miter"
           stroke-miterlimit="2"
           fill="#fcfcfc"
           stroke="#fcfcfc"
           transform="matrix(0.83,0,0,0.83,359.77724,434.6156)" />
        <path
           id="path49592"
           style="font-style:oblique;font-weight:700;font-size:32px;line-height:1;font-family:'Uni Neue';font-variant-ligatures:none;text-align:center;text-anchor:middle"
           d="m 422.417,-0.768 c 0.288,-0.096 0.448,-0.288 0.48,-0.576 l 3.68,-20.928 c 0.064,-0.352 -0.128,-0.608 -0.512,-0.608 h -3.712 c -0.32,0 -0.512,0.192 -0.576,0.512 l -1.056,5.952 c -0.8,-0.416 -1.92,-0.672 -3.104,-0.672 -3.808,0 -6.72,2.592 -7.392,6.4 l -0.672,3.68 c -0.736,4.256 1.824,7.424 6.464,7.424 2.112,0 4.576,-0.448 6.4,-1.184 z m -8,-5.888 0.608,-3.424 c 0.352,-1.952 1.344,-2.912 2.88,-2.912 0.8,0 1.6,0.192 2.112,0.544 l -1.44,8.256 c -0.512,0.224 -1.344,0.352 -2.112,0.352 -1.728,0 -2.432,-0.8 -2.048,-2.816 z"
           stroke-width="0"
           stroke-linejoin="miter"
           stroke-miterlimit="2"
           fill="#fcfcfc"
           stroke="#fcfcfc"
           transform="matrix(0.83,0,0,0.83,361.43724,434.6156)" />
        <path
           id="path49594"
           style="font-style:oblique;font-weight:700;font-size:32px;line-height:1;font-family:'Uni Neue';font-variant-ligatures:none;text-align:center;text-anchor:middle"
           d="m 439.738,0.256 c 0.224,-0.032 0.352,-0.192 0.416,-0.512 l 0.512,-3.04 c 0.064,-0.384 -0.128,-0.544 -0.512,-0.512 -0.192,0 -0.416,0 -0.64,0 -1.152,0 -1.536,-0.864 -1.248,-2.4 l 2.816,-16.064 c 0.064,-0.352 -0.128,-0.608 -0.48,-0.608 h -3.712 c -0.32,0 -0.512,0.192 -0.576,0.512 l -2.816,15.904 c -0.704,4.16 1.088,6.88 4.544,6.88 0.672,0 1.248,-0.064 1.696,-0.16 z"
           stroke-width="0"
           stroke-linejoin="miter"
           stroke-miterlimit="2"
           fill="#fcfcfc"
           stroke="#fcfcfc"
           transform="matrix(0.83,0,0,0.83,363.09724,434.6156)" />
        <path
           id="path49596"
           style="font-style:oblique;font-weight:700;font-size:32px;line-height:1;font-family:'Uni Neue';font-variant-ligatures:none;text-align:center;text-anchor:middle"
           d="m 446.3565,0 c 0.352,0 0.544,-0.192 0.608,-0.512 l 2.752,-15.552 c 0.064,-0.352 -0.128,-0.576 -0.512,-0.576 h -3.712 c -0.32,0 -0.544,0.16 -0.576,0.48 l -2.752,15.552 c -0.064,0.352 0.128,0.608 0.48,0.608 z m 4.416,-21.28 c 0.32,-1.728 -0.704,-3.008 -2.336,-3.008 -1.472,0 -2.56,0.928 -2.816,2.336 -0.32,1.664 0.704,2.976 2.336,2.976 1.44,0 2.56,-0.992 2.816,-2.304 z"
           stroke-width="0"
           stroke-linejoin="miter"
           stroke-miterlimit="2"
           fill="#fcfcfc"
           stroke="#fcfcfc"
           transform="matrix(0.83,0,0,0.83,364.75724,434.6156)" />
        <path
           id="path49598"
           style="font-style:oblique;font-weight:700;font-size:32px;line-height:1;font-family:'Uni Neue';font-variant-ligatures:none;text-align:center;text-anchor:middle"
           d="m 457.9985,-16.384 1.056,-5.888 c 0.032,-0.384 -0.128,-0.608 -0.512,-0.608 h -3.712 c -0.32,0 -0.544,0.192 -0.576,0.512 l -3.68,20.512 c -0.064,0.352 0.032,0.544 0.32,0.704 1.76,0.96 4.128,1.568 6.336,1.568 4.672,0 7.744,-2.432 8.512,-6.912 l 0.576,-3.328 c 0.736,-4.256 -1.664,-7.264 -5.248,-7.264 -1.248,0 -2.272,0.288 -3.072,0.704 z m 2.912,9.536 c -0.384,2.176 -1.504,3.072 -3.168,3.072 -0.736,0 -1.376,-0.128 -1.92,-0.384 l 1.44,-8.224 c 0.64,-0.384 1.44,-0.64 2.304,-0.64 1.472,0 2.304,0.896 1.952,2.656 z"
           stroke-width="0"
           stroke-linejoin="miter"
           stroke-miterlimit="2"
           fill="#fcfcfc"
           stroke="#fcfcfc"
           transform="matrix(0.83,0,0,0.83,366.41724,434.6156)" />
        <path
           id="path49600"
           style="font-style:oblique;font-weight:700;font-size:32px;line-height:1;font-family:'Uni Neue';font-variant-ligatures:none;text-align:center;text-anchor:middle"
           d="m 471.826,0 c 0.32,0 0.512,-0.192 0.576,-0.512 l 2.08,-11.808 c 0.544,-0.224 1.248,-0.384 2.08,-0.384 0.672,0 1.312,0.064 1.856,0.16 0.352,0.032 0.608,-0.128 0.64,-0.48 l 0.576,-3.136 c 0.064,-0.32 -0.096,-0.576 -0.448,-0.64 -0.928,-0.192 -1.792,-0.288 -2.656,-0.288 -2.016,0 -4.064,0.48 -5.92,1.344 -0.256,0.128 -0.416,0.32 -0.48,0.608 l -2.528,14.528 C 467.538,-0.256 467.73,0 468.114,0 Z"
           stroke-width="0"
           stroke-linejoin="miter"
           stroke-miterlimit="2"
           fill="#fcfcfc"
           stroke="#fcfcfc"
           transform="matrix(0.83,0,0,0.83,368.07724,434.6156)" />
        <path
           id="path49602"
           style="font-style:oblique;font-weight:700;font-size:32px;line-height:1;font-family:'Uni Neue';font-variant-ligatures:none;text-align:center;text-anchor:middle"
           d="m 491.4295,-0.704 c 0.288,-0.096 0.416,-0.32 0.48,-0.608 l 1.44,-8.096 c 0.864,-4.8 -1.376,-7.68 -5.728,-7.68 -2.592,0 -4.992,0.576 -6.528,1.504 -0.192,0.128 -0.192,0.352 -0.096,0.64 l 0.992,2.624 c 0.128,0.352 0.384,0.416 0.736,0.256 0.96,-0.448 2.4,-0.736 3.808,-0.736 2.016,0 2.464,0.864 2.176,2.432 l -0.064,0.512 c -0.8,-0.16 -1.76,-0.256 -2.72,-0.256 -4.096,0 -6.72,1.376 -7.264,4.48 -0.64,3.488 1.632,6.048 6.112,6.048 2.464,0 4.832,-0.48 6.656,-1.12 z m -8,-4.672 c 0.16,-0.96 0.992,-1.472 2.56,-1.472 0.704,0 1.44,0.096 2.048,0.224 l -0.448,2.784 c -0.576,0.128 -1.472,0.256 -2.208,0.256 -1.408,0 -2.176,-0.576 -1.952,-1.792 z"
           stroke-width="0"
           stroke-linejoin="miter"
           stroke-miterlimit="2"
           fill="#fcfcfc"
           stroke="#fcfcfc"
           transform="matrix(0.83,0,0,0.83,369.73724,434.6156)" />
        <path
           id="path49604"
           style="font-style:oblique;font-weight:700;font-size:32px;line-height:1;font-family:'Uni Neue';font-variant-ligatures:none;text-align:center;text-anchor:middle"
           d="m 499.201,0 c 0.32,0 0.512,-0.192 0.576,-0.512 l 2.08,-11.808 c 0.544,-0.224 1.248,-0.384 2.08,-0.384 0.672,0 1.312,0.064 1.856,0.16 0.352,0.032 0.608,-0.128 0.64,-0.48 l 0.576,-3.136 c 0.064,-0.32 -0.096,-0.576 -0.448,-0.64 -0.928,-0.192 -1.792,-0.288 -2.656,-0.288 -2.016,0 -4.064,0.48 -5.92,1.344 -0.256,0.128 -0.416,0.32 -0.48,0.608 l -2.528,14.528 C 494.913,-0.256 495.105,0 495.489,0 Z"
           stroke-width="0"
           stroke-linejoin="miter"
           stroke-miterlimit="2"
           fill="#fcfcfc"
           stroke="#fcfcfc"
           transform="matrix(0.83,0,0,0.83,371.39724,434.6156)" />
        <path
           id="path49606"
           style="font-style:oblique;font-weight:700;font-size:32px;line-height:1;font-family:'Uni Neue';font-variant-ligatures:none;text-align:center;text-anchor:middle"
           d="m 516.237,-5.088 c -0.48,0.288 -1.28,0.544 -2.144,0.544 -1.44,0 -2.24,-0.8 -1.888,-2.688 l 1.6,-8.832 c 0.064,-0.352 -0.128,-0.576 -0.512,-0.576 h -3.68 c -0.352,0 -0.544,0.16 -0.576,0.48 l -1.536,8.48 c -0.736,4.32 1.408,7.232 5.344,7.232 0.96,0 1.856,-0.192 2.72,-0.48 -0.352,2.24 -1.408,3.136 -3.424,3.136 -1.408,0 -2.56,-0.416 -3.424,-1.024 -0.32,-0.192 -0.576,-0.192 -0.8,0.128 l -1.984,2.528 c -0.192,0.256 -0.192,0.576 0.064,0.768 1.408,1.216 3.2,1.856 5.76,1.856 5.248,0 7.648,-2.304 8.672,-8.032 l 2.56,-14.496 c 0.032,-0.352 -0.16,-0.576 -0.512,-0.576 h -3.68 c -0.352,0 -0.544,0.16 -0.608,0.48 z"
           stroke-width="0"
           stroke-linejoin="miter"
           stroke-miterlimit="2"
           fill="#fcfcfc"
           stroke="#fcfcfc"
           transform="matrix(0.83,0,0,0.83,373.05724,434.6156)" />
        <path
           id="path49608"
           style="font-style:oblique;font-weight:700;font-size:32px;line-height:1;font-family:'Uni Neue';font-variant-ligatures:none;text-align:center;text-anchor:middle"
           d="m 541.558,-18.976 c 0.288,0.032 0.48,-0.096 0.512,-0.48 l 0.544,-3.04 c 0.064,-0.384 -0.096,-0.608 -0.448,-0.672 -0.544,-0.096 -1.28,-0.128 -2.016,-0.128 -3.968,0 -6.368,2.048 -7.072,6.016 l -2.976,16.672 C 530.038,-0.256 530.23,0 530.614,0 h 3.712 c 0.352,0 0.544,-0.192 0.576,-0.512 l 2.08,-11.616 h 2.944 c 0.352,0 0.544,-0.192 0.608,-0.512 l 0.512,-2.944 c 0.032,-0.384 -0.16,-0.608 -0.512,-0.608 h -2.816 l 0.096,-0.64 c 0.288,-1.504 1.056,-2.24 2.4,-2.24 0.416,0 0.96,0.032 1.344,0.096 z"
           stroke-width="0"
           stroke-linejoin="miter"
           stroke-miterlimit="2"
           fill="#fcfcfc"
           stroke="#fcfcfc"
           transform="matrix(0.83,0,0,0.83,374.71724,434.6156)" />
        <path
           id="path49610"
           style="font-style:oblique;font-weight:700;font-size:32px;line-height:1;font-family:'Uni Neue';font-variant-ligatures:none;text-align:center;text-anchor:middle"
           d="m 555.549,-5.92 0.736,-4.032 c 0.672,-3.904 -1.888,-7.136 -6.272,-7.136 -4.448,0 -7.584,2.4 -8.288,6.272 l -0.672,3.968 c -0.736,4.064 1.856,7.264 6.144,7.264 4.704,0 7.616,-2.304 8.352,-6.336 z m -9.696,-0.448 0.736,-4.128 c 0.256,-1.44 1.344,-2.4 2.88,-2.4 1.536,0 2.208,1.184 1.952,2.624 l -0.736,4.096 c -0.256,1.504 -1.28,2.4 -2.944,2.4 -1.504,0 -2.176,-1.024 -1.888,-2.592 z"
           stroke-width="0"
           stroke-linejoin="miter"
           stroke-miterlimit="2"
           fill="#fcfcfc"
           stroke="#fcfcfc"
           transform="matrix(0.83,0,0,0.83,376.37724,434.6156)" />
        <path
           id="path49612"
           style="font-style:oblique;font-weight:700;font-size:32px;line-height:1;font-family:'Uni Neue';font-variant-ligatures:none;text-align:center;text-anchor:middle"
           d="m 561.826,0 c 0.32,0 0.512,-0.192 0.576,-0.512 l 2.08,-11.808 c 0.544,-0.224 1.248,-0.384 2.08,-0.384 0.672,0 1.312,0.064 1.856,0.16 0.352,0.032 0.608,-0.128 0.64,-0.48 l 0.576,-3.136 c 0.064,-0.32 -0.096,-0.576 -0.448,-0.64 -0.928,-0.192 -1.792,-0.288 -2.656,-0.288 -2.016,0 -4.064,0.48 -5.92,1.344 -0.256,0.128 -0.416,0.32 -0.48,0.608 l -2.528,14.528 C 557.538,-0.256 557.73,0 558.114,0 Z"
           stroke-width="0"
           stroke-linejoin="miter"
           stroke-miterlimit="2"
           fill="#fcfcfc"
           stroke="#fcfcfc"
           transform="matrix(0.83,0,0,0.83,378.03724,434.6156)" />
        <path
           id="path49614"
           style="font-style:oblique;font-weight:700;font-size:32px;line-height:1;font-family:'Uni Neue';font-variant-ligatures:none;text-align:center;text-anchor:middle"
           d="m 582.436,-16.384 1.056,-5.888 c 0.032,-0.384 -0.128,-0.608 -0.512,-0.608 h -3.712 c -0.32,0 -0.544,0.192 -0.576,0.512 l -3.68,20.512 c -0.064,0.352 0.032,0.544 0.32,0.704 1.76,0.96 4.128,1.568 6.336,1.568 4.672,0 7.744,-2.432 8.512,-6.912 l 0.576,-3.328 c 0.736,-4.256 -1.664,-7.264 -5.248,-7.264 -1.248,0 -2.272,0.288 -3.072,0.704 z m 2.912,9.536 c -0.384,2.176 -1.504,3.072 -3.168,3.072 -0.736,0 -1.376,-0.128 -1.92,-0.384 l 1.44,-8.224 c 0.64,-0.384 1.44,-0.64 2.304,-0.64 1.472,0 2.304,0.896 1.952,2.656 z"
           stroke-width="0"
           stroke-linejoin="miter"
           stroke-miterlimit="2"
           fill="#fcfcfc"
           stroke="#fcfcfc"
           transform="matrix(0.83,0,0,0.83,379.69724,434.6156)" />
        <path
           id="path49616"
           style="font-style:oblique;font-weight:700;font-size:32px;line-height:1;font-family:'Uni Neue';font-variant-ligatures:none;text-align:center;text-anchor:middle"
           d="m 596.2635,0 c 0.32,0 0.512,-0.192 0.576,-0.512 l 2.08,-11.808 c 0.544,-0.224 1.248,-0.384 2.08,-0.384 0.672,0 1.312,0.064 1.856,0.16 0.352,0.032 0.608,-0.128 0.64,-0.48 l 0.576,-3.136 c 0.064,-0.32 -0.096,-0.576 -0.448,-0.64 -0.928,-0.192 -1.792,-0.288 -2.656,-0.288 -2.016,0 -4.064,0.48 -5.92,1.344 -0.256,0.128 -0.416,0.32 -0.48,0.608 l -2.528,14.528 c -0.064,0.352 0.128,0.608 0.512,0.608 z"
           stroke-width="0"
           stroke-linejoin="miter"
           stroke-miterlimit="2"
           fill="#fcfcfc"
           stroke="#fcfcfc"
           transform="matrix(0.83,0,0,0.83,381.35724,434.6156)" />
        <path
           id="path49618"
           style="font-style:oblique;font-weight:700;font-size:32px;line-height:1;font-family:'Uni Neue';font-variant-ligatures:none;text-align:center;text-anchor:middle"
           d="m 618.3615,-5.92 0.736,-4.032 c 0.672,-3.904 -1.888,-7.136 -6.272,-7.136 -4.448,0 -7.584,2.4 -8.288,6.272 l -0.672,3.968 c -0.736,4.064 1.856,7.264 6.144,7.264 4.704,0 7.616,-2.304 8.352,-6.336 z m -9.696,-0.448 0.736,-4.128 c 0.256,-1.44 1.344,-2.4 2.88,-2.4 1.536,0 2.208,1.184 1.952,2.624 l -0.736,4.096 c -0.256,1.504 -1.28,2.4 -2.944,2.4 -1.504,0 -2.176,-1.024 -1.888,-2.592 z"
           stroke-width="0"
           stroke-linejoin="miter"
           stroke-miterlimit="2"
           fill="#fcfcfc"
           stroke="#fcfcfc"
           transform="matrix(0.83,0,0,0.83,383.01724,434.6156)" />
        <path
           id="path49620"
           style="font-style:oblique;font-weight:700;font-size:32px;line-height:1;font-family:'Uni Neue';font-variant-ligatures:none;text-align:center;text-anchor:middle"
           d="m 627.462,0 c 0.288,0 0.512,-0.16 0.608,-0.448 l 2.272,-5.408 c 0.448,-1.12 1.312,-3.552 1.664,-4.704 h 0.096 c 0.032,1.12 0.064,3.232 0.096,4.704 l 0.224,5.312 C 632.454,-0.192 632.646,0 632.998,0 h 4 c 0.32,0 0.544,-0.16 0.672,-0.416 l 6.848,-15.616 c 0.192,-0.384 0,-0.608 -0.416,-0.608 h -3.68 c -0.288,0 -0.512,0.128 -0.64,0.416 l -1.952,5.312 c -0.544,1.504 -1.472,4 -1.92,5.44 h -0.128 c 0.032,-1.6 -0.032,-3.68 -0.096,-5.312 l -0.256,-5.12 c 0,-0.352 -0.192,-0.512 -0.544,-0.512 h -3.808 c -0.288,0 -0.512,0.128 -0.64,0.416 l -2.048,5.184 c -0.576,1.472 -1.344,3.712 -1.856,5.344 h -0.128 c 0,-1.44 -0.032,-3.968 -0.064,-5.376 l -0.128,-5.248 c 0,-0.384 -0.224,-0.544 -0.576,-0.544 h -3.68 c -0.352,0 -0.576,0.192 -0.544,0.576 l 1.408,15.552 C 622.854,-0.16 623.078,0 623.398,0 Z"
           stroke-width="0"
           stroke-linejoin="miter"
           stroke-miterlimit="2"
           fill="#fcfcfc"
           stroke="#fcfcfc"
           transform="matrix(0.83,0,0,0.83,384.67724,434.6156)" />
        <path
           id="path49622"
           style="font-style:oblique;font-weight:700;font-size:32px;line-height:1;font-family:'Uni Neue';font-variant-ligatures:none;text-align:center;text-anchor:middle"
           d="m 657.2965,-4.544 c 0.672,-3.744 -2.4,-5.28 -4.864,-5.824 -1.536,-0.352 -2.56,-0.64 -2.368,-1.6 0.128,-0.8 0.864,-1.056 2.048,-1.056 1.344,0 2.56,0.288 3.552,0.864 0.32,0.16 0.576,0.128 0.768,-0.16 l 1.888,-2.528 c 0.224,-0.288 0.192,-0.576 -0.128,-0.768 -1.728,-0.992 -3.424,-1.472 -5.632,-1.472 -3.872,0 -6.56,1.376 -7.232,4.608 -0.704,3.456 1.792,5.344 4.928,5.984 1.28,0.288 2.4,0.544 2.176,1.536 -0.16,0.736 -0.928,1.216 -2.464,1.216 -1.504,0 -2.912,-0.448 -4.16,-1.376 -0.288,-0.192 -0.544,-0.16 -0.768,0.128 l -1.824,2.496 c -0.192,0.256 -0.192,0.544 0.096,0.768 1.76,1.44 3.84,2.144 6.496,2.144 4,0 6.848,-1.568 7.488,-4.96 z"
           stroke-width="0"
           stroke-linejoin="miter"
           stroke-miterlimit="2"
           fill="#fcfcfc"
           stroke="#fcfcfc"
           transform="matrix(0.83,0,0,0.83,386.33724,434.6156)" />
        <path
           id="path49624"
           style="font-style:oblique;font-weight:700;font-size:32px;line-height:1;font-family:'Uni Neue';font-variant-ligatures:none;text-align:center;text-anchor:middle"
           d="m 660.478,-10.944 -0.832,4.64 c -0.736,4.16 2.176,6.72 6.368,6.72 2.784,0 4.96,-0.768 6.688,-1.952 0.288,-0.16 0.32,-0.448 0.192,-0.768 l -1.312,-2.464 c -0.16,-0.352 -0.416,-0.384 -0.736,-0.16 -1.28,0.768 -2.752,1.28 -4.16,1.28 -1.76,0 -2.528,-0.832 -2.208,-2.528 l 0.096,-0.448 h 8.896 c 0.32,0 0.512,-0.16 0.576,-0.48 l 0.544,-3.104 c 0.864,-4.704 -2.048,-6.88 -6.144,-6.88 -3.872,0 -7.2,1.952 -7.968,6.144 z m 9.344,1.12 h -4.672 l 0.16,-0.864 c 0.288,-1.504 1.344,-2.336 2.72,-2.336 1.632,0 2.176,1.12 1.952,2.4 z"
           stroke-width="0"
           stroke-linejoin="miter"
           stroke-miterlimit="2"
           fill="#fcfcfc"
           stroke="#fcfcfc"
           transform="matrix(0.83,0,0,0.83,387.99724,434.6156)" />
        <path
           id="path49626"
           style="font-style:oblique;font-weight:700;font-size:32px;line-height:1;font-family:'Uni Neue';font-variant-ligatures:none;text-align:center;text-anchor:middle"
           d="m 679.951,0 c 0.32,0 0.512,-0.192 0.576,-0.512 l 2.08,-11.808 c 0.544,-0.224 1.248,-0.384 2.08,-0.384 0.672,0 1.312,0.064 1.856,0.16 0.352,0.032 0.608,-0.128 0.64,-0.48 l 0.576,-3.136 c 0.064,-0.32 -0.096,-0.576 -0.448,-0.64 -0.928,-0.192 -1.792,-0.288 -2.656,-0.288 -2.016,0 -4.064,0.48 -5.92,1.344 -0.256,0.128 -0.416,0.32 -0.48,0.608 l -2.528,14.528 C 675.663,-0.256 675.855,0 676.239,0 Z"
           stroke-width="0"
           stroke-linejoin="miter"
           stroke-miterlimit="2"
           fill="#fcfcfc"
           stroke="#fcfcfc"
           transform="matrix(0.83,0,0,0.83,389.65724,434.6156)" />
        <path
           id="path49628"
           style="font-style:oblique;font-weight:700;font-size:32px;line-height:1;font-family:'Uni Neue';font-variant-ligatures:none;text-align:center;text-anchor:middle"
           d="m 700.859,-4.544 c 0.672,-3.744 -2.4,-5.28 -4.864,-5.824 -1.536,-0.352 -2.56,-0.64 -2.368,-1.6 0.128,-0.8 0.864,-1.056 2.048,-1.056 1.344,0 2.56,0.288 3.552,0.864 0.32,0.16 0.576,0.128 0.768,-0.16 l 1.888,-2.528 c 0.224,-0.288 0.192,-0.576 -0.128,-0.768 -1.728,-0.992 -3.424,-1.472 -5.632,-1.472 -3.872,0 -6.56,1.376 -7.232,4.608 -0.704,3.456 1.792,5.344 4.928,5.984 1.28,0.288 2.4,0.544 2.176,1.536 -0.16,0.736 -0.928,1.216 -2.464,1.216 -1.504,0 -2.912,-0.448 -4.16,-1.376 -0.288,-0.192 -0.544,-0.16 -0.768,0.128 l -1.824,2.496 c -0.192,0.256 -0.192,0.544 0.096,0.768 1.76,1.44 3.84,2.144 6.496,2.144 4,0 6.848,-1.568 7.488,-4.96 z"
           stroke-width="0"
           stroke-linejoin="miter"
           stroke-miterlimit="2"
           fill="#fcfcfc"
           stroke="#fcfcfc"
           transform="matrix(0.83,0,0,0.83,391.31724,434.6156)" />
      </g>
      <g
         id="g4354"
         transform="translate(-263.85006)">
        <g
           id="g4329">
          <g
             id="g2927"
             style="fill:#f7df1e;fill-opacity:1"
             transform="matrix(0.46241511,0,0,0.46241511,-101.80026,-93.658101)">
            <path
               id="path49649"
               style="font-style:normal;font-weight:800;font-size:72px;line-height:1;font-family:'Montserrat ExtraBold Alt1';font-variant-ligatures:none;text-align:center;text-anchor:middle;fill:#f7df1e;fill-opacity:1"
               d="m 754.94638,350.50298 c 1.31471,1.31472 2.92823,1.91232 4.84056,1.91232 1.91232,0 3.52583,-0.5976 4.84056,-1.91232 1.31471,-1.25496 1.97208,-2.86848 1.97208,-4.84056 0,-1.97208 -0.65737,-3.5856 -1.91232,-4.84056 -1.31473,-1.1952 -2.92824,-1.85256 -4.90032,-1.85256 -1.97209,0 -3.58561,0.65736 -4.90032,1.85256 -1.31473,1.25496 -1.91233,2.86848 -1.91233,4.84056 0,1.97208 0.65736,3.5856 1.97209,4.84056 z"
               stroke-width="0"
               stroke-linejoin="miter"
               stroke-miterlimit="2"
               fill="#fcfcfc"
               stroke="#fcfcfc" />
            <path
               id="path49651"
               style="font-style:normal;font-weight:800;font-size:72px;line-height:1;font-family:'Montserrat ExtraBold Alt1';font-variant-ligatures:none;text-align:center;text-anchor:middle;fill:#f7df1e;fill-opacity:1"
               d="m 779.71648,351.16034 c 2.50992,1.07568 5.25888,1.55376 8.36641,1.55376 5.25888,0 9.26279,-1.31472 12.01176,-4.06368 2.74896,-2.6892 4.12343,-6.75288 4.12343,-12.19104 v -26.41392 h -26.17487 v 9.14328 h 14.46192 v 17.98776 c 0,2.03184 -0.47809,3.52584 -1.37449,4.54176 -0.89639,1.07568 -2.21112,1.55376 -3.8844,1.55376 -2.62944,0 -5.01984,-1.43424 -7.23095,-4.36248 l -6.45409,7.64928 c 1.55377,2.03184 3.64536,3.52584 6.15528,4.60152 z"
               stroke-width="0"
               stroke-linejoin="miter"
               stroke-miterlimit="2"
               fill="#fcfcfc"
               stroke="#fcfcfc" />
            <path
               id="path49653"
               style="font-style:normal;font-weight:800;font-size:72px;line-height:1;font-family:'Montserrat ExtraBold Alt1';font-variant-ligatures:none;text-align:center;text-anchor:middle;fill:#f7df1e;fill-opacity:1"
               d="m 820.36501,351.45914 c 3.16728,0.83664 6.45408,1.25496 9.8604,1.25496 3.94416,0 7.35048,-0.5976 10.1592,-1.7928 2.74896,-1.1952 4.84056,-2.86848 6.2748,-4.90032 1.37448,-2.03184 2.0916,-4.30272 2.0916,-6.81264 0,-2.86848 -0.77688,-5.19912 -2.33064,-6.8724 -1.55376,-1.67328 -3.34656,-2.92824 -5.43816,-3.70512 -2.0916,-0.77688 -4.72104,-1.494 -7.88832,-2.21112 -2.86848,-0.5976 -4.90032,-1.13544 -6.15528,-1.73304 -1.31472,-0.53784 -1.91232,-1.37448 -1.91232,-2.50992 0,-1.07568 0.53784,-1.97208 1.61352,-2.6892 1.07568,-0.71712 2.74896,-1.07568 5.13936,-1.07568 3.70512,0 7.58952,1.07568 11.59344,3.22704 l 3.64536,-8.78472 c -2.03184,-1.1952 -4.42224,-2.0916 -7.05168,-2.6892 -2.6892,-0.5976 -5.3784,-0.95616 -8.12736,-0.95616 -4.06368,0 -7.47,0.5976 -10.21896,1.7928 -2.74896,1.1952 -4.84056,2.86848 -6.21504,4.90032 -1.43424,2.03184 -2.0916,4.36248 -2.0916,6.8724 0,2.92824 0.71712,5.25888 2.27088,6.93216 1.494,1.73304 3.2868,2.988 5.43816,3.76488 2.0916,0.77688 4.72104,1.494 7.88832,2.15136 2.86848,0.65736 4.90032,1.25496 6.21504,1.85256 1.31472,0.5976 1.97208,1.43424 1.97208,2.62944 0,2.27088 -2.27088,3.40632 -6.81264,3.40632 -2.3904,0 -4.84056,-0.35856 -7.29072,-1.13544 -2.50992,-0.71712 -4.66128,-1.73304 -6.51384,-2.988 l -3.8844,8.72496 c 1.97208,1.43424 4.54176,2.50992 7.7688,3.34656 z"
               stroke-width="0"
               stroke-linejoin="miter"
               stroke-miterlimit="2"
               fill="#fcfcfc"
               stroke="#fcfcfc" />
          </g>
          <g
             id="g691"
             style="fill:#8265df;fill-opacity:1"
             transform="matrix(0.46241511,0,0,0.46241511,-101.80026,-93.658101)">
            <path
               id="path49631"
               style="font-style:normal;font-weight:800;font-size:72px;line-height:1;font-family:'Montserrat ExtraBold Alt1';font-variant-ligatures:none;text-align:center;text-anchor:middle;fill:#8265df;fill-opacity:1"
               d="m 315.92798,334.00922 c -1.37448,-1.7928 -3.2868,-3.10752 -5.61744,-3.94416 1.73304,-0.8964 3.16728,-2.15136 4.12344,-3.70512 0.95617,-1.55376 1.494,-3.34656 1.494,-5.3784 0,-3.34656 -1.43424,-5.976 -4.1832,-7.94808 -2.80872,-1.97208 -6.8724,-2.988 -12.19104,-2.988 h -21.39408 v 8.54568 h 19.84033 c 3.94415,0 5.97599,1.37448 5.97599,4.00392 0,2.74896 -2.03184,4.06368 -5.97599,4.06368 h -19.84033 v 8.18712 h 21.63312 c 4.12344,0 6.21504,1.43424 6.21504,4.24296 0,2.86848 -2.0916,4.24296 -6.21504,4.24296 h -21.63312 v 8.54568 h 22.58928 c 5.55768,0 9.80064,-0.95616 12.78864,-2.988 2.92824,-1.97208 4.42224,-4.7808 4.42224,-8.48592 0,-2.50992 -0.71712,-4.60152 -2.03184,-6.39432 z"
               stroke-width="0"
               stroke-linejoin="miter"
               stroke-miterlimit="2"
               fill="#fcfcfc"
               stroke="#fcfcfc" />
            <path
               id="path49633"
               style="font-style:normal;font-weight:800;font-size:72px;line-height:1;font-family:'Montserrat ExtraBold Alt1';font-variant-ligatures:none;text-align:center;text-anchor:middle;fill:#8265df;fill-opacity:1"
               d="m 356.98829,338.73026 c 2.56968,-1.25496 4.60152,-2.988 6.03576,-5.25888 1.43424,-2.27088 2.15136,-4.90032 2.15136,-7.94808 0,-3.10752 -0.77688,-5.85648 -2.27088,-8.18712 -1.55375,-2.33064 -3.70512,-4.12344 -6.45408,-5.3784 -2.80871,-1.25496 -6.09552,-1.91232 -9.8604,-1.91232 h -19.1232 v 9.32256 h 18.40608 c 2.3904,0 4.24296,0.53784 5.49793,1.61352 1.19519,1.07568 1.85255,2.62944 1.85255,4.54176 0,1.97208 -0.65736,3.46608 -1.85255,4.54176 -1.25497,1.07568 -3.10753,1.55376 -5.49793,1.55376 h -18.40608 v 20.25864 h 11.83248 V 340.7621 h 6.45408 l 7.58952,11.11536 h 12.66913 z"
               stroke-width="0"
               stroke-linejoin="miter"
               stroke-miterlimit="2"
               fill="#fcfcfc"
               stroke="#fcfcfc" />
            <path
               id="path49637"
               style="font-style:normal;font-weight:800;font-size:72px;line-height:1;font-family:'Montserrat ExtraBold Alt1';font-variant-ligatures:none;text-align:center;text-anchor:middle;fill:#8265df;fill-opacity:1"
               d="m 449.98985,310.04546 h -12.19104 l 10.63729,32.92776 5.97599,-18.76464 z m 45.35784,0 -8.78472,26.95176 -4.90032,14.88024 h 11.41416 l 13.56552,-41.832 z m -17.21088,0 H 467.2605 l -8.84448,26.71272 -4.66129,15.11928 h 10.27872 l 8.3664,-25.45776 4.42224,14.10336 5.61744,-16.61328 z"
               stroke-width="0"
               stroke-linejoin="miter"
               stroke-miterlimit="2"
               fill="#fcfcfc"
               stroke="#fcfcfc" />
            <path
               id="path49639"
               style="font-style:normal;font-weight:800;font-size:72px;line-height:1;font-family:'Montserrat ExtraBold Alt1';font-variant-ligatures:none;text-align:center;text-anchor:middle;fill:#8265df;fill-opacity:1"
               d="m 518.98423,351.45914 c 3.16727,0.83664 6.45408,1.25496 9.86039,1.25496 3.94417,0 7.35048,-0.5976 10.15921,-1.7928 2.74895,-1.1952 4.84055,-2.86848 6.2748,-4.90032 1.37447,-2.03184 2.09159,-4.30272 2.09159,-6.81264 0,-2.86848 -0.77688,-5.19912 -2.33064,-6.8724 -1.55376,-1.67328 -3.34656,-2.92824 -5.43816,-3.70512 -2.0916,-0.77688 -4.72104,-1.494 -7.88832,-2.21112 -2.86848,-0.5976 -4.90032,-1.13544 -6.15527,-1.73304 -1.31472,-0.53784 -1.91233,-1.37448 -1.91233,-2.50992 0,-1.07568 0.53785,-1.97208 1.61353,-2.6892 1.07567,-0.71712 2.74896,-1.07568 5.13936,-1.07568 3.70512,0 7.58952,1.07568 11.59343,3.22704 l 3.64536,-8.78472 c -2.03184,-1.1952 -4.42224,-2.0916 -7.05168,-2.6892 -2.6892,-0.5976 -5.3784,-0.95616 -8.12735,-0.95616 -4.06369,0 -7.47,0.5976 -10.21896,1.7928 -2.74897,1.1952 -4.84056,2.86848 -6.21504,4.90032 -1.43425,2.03184 -2.09161,4.36248 -2.09161,6.8724 0,2.92824 0.71712,5.25888 2.27089,6.93216 1.49399,1.73304 3.28679,2.988 5.43815,3.76488 2.09161,0.77688 4.72104,1.494 7.88832,2.15136 2.86849,0.65736 4.90032,1.25496 6.21504,1.85256 1.31472,0.5976 1.97208,1.43424 1.97208,2.62944 0,2.27088 -2.27088,3.40632 -6.81264,3.40632 -2.39039,0 -4.84055,-0.35856 -7.29071,-1.13544 -2.50992,-0.71712 -4.66129,-1.73304 -6.51385,-2.988 l -3.8844,8.72496 c 1.97208,1.43424 4.54176,2.50992 7.76881,3.34656 z"
               stroke-width="0"
               stroke-linejoin="miter"
               stroke-miterlimit="2"
               fill="#fcfcfc"
               stroke="#fcfcfc" />
            <path
               id="path49641"
               style="font-style:normal;font-weight:800;font-size:72px;line-height:1;font-family:'Montserrat ExtraBold Alt1';font-variant-ligatures:none;text-align:center;text-anchor:middle;fill:#8265df;fill-opacity:1"
               d="m 565.12133,349.96514 c 3.46608,1.85256 7.41024,2.74896 11.83248,2.74896 3.82464,0 7.23096,-0.65736 10.33848,-2.03184 3.04776,-1.31472 5.61744,-3.2868 7.64928,-5.85648 l -7.52976,-6.81264 c -2.74896,3.2868 -6.03576,4.90032 -9.8604,4.90032 -2.27088,0 -4.30272,-0.47808 -6.09552,-1.494 -1.7928,-0.95616 -3.16728,-2.3904 -4.12344,-4.1832 -0.95616,-1.7928 -1.43424,-3.8844 -1.43424,-6.2748 0,-2.33064 0.47808,-4.42224 1.43424,-6.21504 0.95616,-1.7928 2.33064,-3.22704 4.12344,-4.24296 1.7928,-0.95616 3.82464,-1.494 6.09552,-1.494 3.82464,0 7.11144,1.67328 9.8604,4.90032 l 7.52976,-6.81264 c -2.03184,-2.50992 -4.60152,-4.482 -7.64928,-5.85648 -3.10752,-1.31472 -6.51384,-2.03184 -10.33848,-2.03184 -4.42224,0 -8.3664,0.95616 -11.83248,2.80872 -3.46608,1.85256 -6.21504,4.42224 -8.18712,7.70904 -2.03184,3.34656 -2.988,7.05168 -2.988,11.23488 0,4.1832 0.95616,7.94808 2.988,11.23488 1.97208,3.34656 4.72104,5.91624 8.18712,7.7688 z"
               stroke-width="0"
               stroke-linejoin="miter"
               stroke-miterlimit="2"
               fill="#fcfcfc"
               stroke="#fcfcfc" />
            <path
               id="path49643"
               style="font-style:normal;font-weight:800;font-size:72px;line-height:1;font-family:'Montserrat ExtraBold Alt1';font-variant-ligatures:none;text-align:center;text-anchor:middle;fill:#8265df;fill-opacity:1"
               d="m 611.74679,349.90538 c 3.52584,1.91232 7.52976,2.80872 11.952,2.80872 4.42224,0 8.3664,-0.8964 11.89224,-2.80872 3.52584,-1.85256 6.2748,-4.42224 8.30664,-7.7688 2.03184,-3.2868 3.04776,-6.99192 3.04776,-11.17512 0,-4.12344 -1.01592,-7.82856 -3.04776,-11.17512 -2.03184,-3.2868 -4.7808,-5.85648 -8.30664,-7.7688 -3.52584,-1.85256 -7.47,-2.80872 -11.89224,-2.80872 -4.42224,0 -8.42616,0.95616 -11.952,2.80872 -3.52584,1.91232 -6.2748,4.482 -8.30664,7.7688 -2.03184,3.34656 -2.988,7.05168 -2.988,11.17512 0,4.1832 0.95616,7.88832 2.988,11.17512 2.03184,3.34656 4.7808,5.91624 8.30664,7.7688 z m 17.68896,-8.48592 c -1.73304,1.01592 -3.64536,1.494 -5.73696,1.494 -2.15136,0 -4.06368,-0.47808 -5.73696,-1.494 -1.73304,-0.95616 -3.10752,-2.3904 -4.06368,-4.1832 -1.01592,-1.7928 -1.494,-3.8844 -1.494,-6.2748 0,-2.33064 0.47808,-4.42224 1.494,-6.21504 0.95616,-1.7928 2.33064,-3.22704 4.06368,-4.24296 1.67328,-0.95616 3.5856,-1.494 5.73696,-1.494 2.0916,0 4.00392,0.53784 5.73696,1.494 1.67328,1.01592 3.04776,2.45016 4.06368,4.24296 0.95616,1.7928 1.494,3.8844 1.494,6.21504 0,2.3904 -0.53784,4.482 -1.494,6.2748 -1.01592,1.7928 -2.3904,3.22704 -4.06368,4.1832 z"
               stroke-width="0"
               stroke-linejoin="miter"
               stroke-miterlimit="2"
               fill="#fcfcfc"
               stroke="#fcfcfc" />
            <path
               id="path49645"
               style="font-style:normal;font-weight:800;font-size:72px;line-height:1;font-family:'Montserrat ExtraBold Alt1';font-variant-ligatures:none;text-align:center;text-anchor:middle;fill:#8265df;fill-opacity:1"
               d="m 685.98416,338.73026 c 2.56968,-1.25496 4.60153,-2.988 6.03576,-5.25888 1.43424,-2.27088 2.15136,-4.90032 2.15136,-7.94808 0,-3.10752 -0.77687,-5.85648 -2.27088,-8.18712 -1.55375,-2.33064 -3.70511,-4.12344 -6.45407,-5.3784 -2.80872,-1.25496 -6.09553,-1.91232 -9.8604,-1.91232 h -19.12321 v 9.32256 h 18.40608 c 2.3904,0 4.24296,0.53784 5.49793,1.61352 1.19519,1.07568 1.85255,2.62944 1.85255,4.54176 0,1.97208 -0.65736,3.46608 -1.85255,4.54176 -1.25497,1.07568 -3.10753,1.55376 -5.49793,1.55376 h -18.40608 v 20.25864 h 11.83249 V 340.7621 h 6.45407 l 7.58952,11.11536 h 12.66913 z"
               stroke-width="0"
               stroke-linejoin="miter"
               stroke-miterlimit="2"
               fill="#fcfcfc"
               stroke="#fcfcfc" />
            <path
               id="path49647"
               style="font-style:normal;font-weight:800;font-size:72px;line-height:1;font-family:'Montserrat ExtraBold Alt1';font-variant-ligatures:none;text-align:center;text-anchor:middle;fill:#8265df;fill-opacity:1"
               d="m 744.23761,319.90586 c -1.97208,-3.10752 -4.72104,-5.55768 -8.24688,-7.29072 -3.5856,-1.67328 -7.64928,-2.56968 -12.19104,-2.56968 h -19.78056 v 9.44208 h 19.30248 c 3.5856,0 6.45408,1.01592 8.60544,3.04776 2.15136,2.0916 3.2868,4.90032 3.2868,8.42616 0,3.5856 -1.13544,6.39432 -3.2868,8.42616 -2.15136,2.03184 -5.01984,3.04776 -8.60544,3.04776 h -7.47 v -11.11536 h -11.83248 v 20.55744 h 19.78056 c 4.54176,0 8.60544,-0.83664 12.19104,-2.56968 3.52584,-1.67328 6.2748,-4.12344 8.24688,-7.29072 1.91232,-3.10752 2.92824,-6.81264 2.92824,-11.0556 0,-4.1832 -1.01592,-7.88832 -2.92824,-11.0556 z"
               stroke-width="0"
               stroke-linejoin="miter"
               stroke-miterlimit="2"
               fill="#fcfcfc"
               stroke="#fcfcfc" />
          </g>
        </g>
        <g
           id="g4334">
          <path
             class="st0"
             id="circle12679"
             style="fill:#8265df;fill-rule:nonzero;stroke:none"
             d="m 95.676056,59.569622 c 0,1.173901 -0.179982,2.720867 -0.885605,4.389146 -0.515881,1.219681 -1.300419,2.468059 -2.417419,3.585059 -0.969834,0.969834 -2.172204,1.819832 -3.585059,2.41742 -1.311579,0.554751 -2.791878,0.885604 -4.389146,0.885604 -1.547599,0 -3.030627,-0.310999 -4.389145,-0.885604 -1.357437,-0.574147 -2.570874,-1.403233 -3.585061,-2.417419 -1.046013,-1.046014 -1.860701,-2.26883 -2.417419,-3.585059 -0.597321,-1.412225 -0.885605,-2.900414 -0.885605,-4.389147 0,-1.488733 0.288284,-2.976922 0.885605,-4.389147 0.556718,-1.316229 1.371406,-2.539044 2.417418,-3.585057 1.014188,-1.014188 2.227625,-1.843274 3.58506,-2.417421 1.35852,-0.574605 2.841548,-0.885604 4.389144,-0.885604 1.597271,0 3.07757,0.330854 4.389149,0.885604 1.412855,0.597588 2.615225,1.447586 3.585059,2.41742 1.117,1.117 1.901538,2.365378 2.417419,3.585059 0.705623,1.668279 0.885605,3.215245 0.885605,4.389146 z m 3,0 c 0,-1.479367 -0.227064,-3.440538 -1.122591,-5.557802 -0.654188,-1.546674 -1.647486,-3.126097 -3.059113,-4.537724 -1.225394,-1.225394 -2.746596,-2.301529 -4.537723,-3.059112 -1.665155,-0.704301 -3.541831,-1.122591 -5.557802,-1.122591 -1.953007,0 -3.833141,0.393121 -5.5578,1.12259 -1.721002,0.727922 -3.256208,1.777595 -4.537726,3.059113 -1.321793,1.321794 -2.353246,2.868868 -3.059112,4.537723 -0.758265,1.792739 -1.122592,3.679416 -1.122592,5.557803 0,1.878387 0.364327,3.765064 1.122592,5.557803 0.705866,1.668855 1.737319,3.215929 3.05911,4.537721 1.28152,1.28152 2.816726,2.331193 4.537725,3.059114 1.724662,0.72947 3.604796,1.122591 5.5578,1.122591 2.015974,0 3.89265,-0.41829 5.557805,-1.122591 1.791127,-0.757583 3.312329,-1.833718 4.537723,-3.059112 1.411627,-1.411627 2.404925,-2.99105 3.059113,-4.537724 0.895527,-2.117264 1.122591,-4.078435 1.122591,-5.557802 z"
             sodipodi:type="arc"
             sodipodi:ry="12.777229"
             sodipodi:rx="12.777229"
             sodipodi:cy="59.569622"
             sodipodi:cx="84.398827"
             inkscape:path-effect="#path-effect3335" />
          <path
             class="st0"
             id="ellipse12681"
             style="fill:#8265df;fill-rule:nonzero;stroke:none"
             inkscape:path-effect="#path-effect3337"
             sodipodi:type="arc"
             sodipodi:cx="84.398827"
             sodipodi:cy="59.569622"
             sodipodi:rx="5.8971829"
             sodipodi:ry="12.777229"
             d="m 88.79601,59.569622 c 0,1.25955 -0.08951,2.913024 -0.43564,4.686077 -0.253531,1.29873 -0.632743,2.591798 -1.153544,3.720201 -0.230431,0.499267 -0.481728,0.950858 -0.749391,1.342656 -0.255465,0.373942 -0.51703,0.680457 -0.776599,0.918332 -0.250357,0.229433 -0.486542,0.383808 -0.701492,0.479109 -0.205617,0.09116 -0.396786,0.130854 -0.580517,0.130854 -0.180656,0 -0.371865,-0.03835 -0.580517,-0.130854 -0.210874,-0.09349 -0.447236,-0.246103 -0.701493,-0.479109 -0.254401,-0.23314 -0.516385,-0.537439 -0.776598,-0.918331 -0.261571,-0.38288 -0.513652,-0.831889 -0.749391,-1.342657 -0.486735,-1.054591 -0.880416,-2.32108 -1.153544,-3.7202 -0.292673,-1.499236 -0.43564,-3.089853 -0.43564,-4.686078 0,-1.596225 0.142967,-3.186842 0.43564,-4.686078 0.273128,-1.39912 0.666809,-2.665609 1.153543,-3.720199 0.23574,-0.510769 0.487821,-0.959778 0.749392,-1.342657 0.260213,-0.380893 0.522197,-0.685192 0.776597,-0.918331 0.254258,-0.233007 0.49062,-0.385616 0.701493,-0.47911 0.208653,-0.09251 0.399862,-0.130854 0.580518,-0.130854 0.183731,0 0.3749,0.03969 0.580517,0.130854 0.21495,0.0953 0.451135,0.249676 0.701492,0.479109 0.259569,0.237875 0.521134,0.54439 0.776598,0.918331 0.267664,0.3918 0.518961,0.84339 0.749392,1.342657 0.520801,1.128403 0.900013,2.421471 1.153543,3.720199 0.346126,1.773055 0.435641,3.426529 0.435641,4.686079 z m 3,0 c 0,-1.393716 -0.09835,-3.248379 -0.49122,-5.260869 -0.286502,-1.46763 -0.727829,-3.002361 -1.374086,-4.402584 -0.287946,-0.623883 -0.618832,-1.225474 -0.996143,-1.777771 -0.358811,-0.525217 -0.766518,-1.015919 -1.226844,-1.437773 -0.444448,-0.407302 -0.948398,-0.759839 -1.512432,-1.009911 -0.554207,-0.245715 -1.157919,-0.388321 -1.796458,-0.388321 -0.628819,0 -1.232654,0.13835 -1.796457,0.38832 -0.555198,0.246155 -1.058648,0.594052 -1.512433,1.009912 -0.452233,0.414436 -0.860597,0.90167 -1.226843,1.437771 -0.369256,0.540506 -0.70118,1.138684 -0.996144,1.777773 -0.6061,1.313216 -1.064484,2.816617 -1.374087,4.402582 -0.332982,1.705727 -0.491219,3.489976 -0.491219,5.260871 0,1.770896 0.158237,3.555144 0.491219,5.260872 0.309603,1.585964 0.767987,3.089365 1.374086,4.402579 0.294965,0.639091 0.626889,1.237269 0.996144,1.777773 0.366247,0.536103 0.774611,1.023337 1.226842,1.437772 0.453787,0.415861 0.957237,0.763758 1.512433,1.009912 0.563805,0.249971 1.16764,0.388321 1.796459,0.388321 0.638539,0 1.242251,-0.142606 1.796458,-0.388321 0.564034,-0.250072 1.067984,-0.602609 1.512432,-1.009911 0.460326,-0.421854 0.868033,-0.912556 1.226843,-1.437771 0.377312,-0.552299 0.708198,-1.15389 0.996144,-1.777773 0.646257,-1.400223 1.087584,-2.934954 1.374086,-4.40258 0.392867,-2.012494 0.49122,-3.867156 0.49122,-5.260873 z" />
          <path
             id="line3677"
             style="fill:none;stroke:#8265df;stroke-width:2;stroke-linecap:round;stroke-linejoin:round;stroke-miterlimit:10"
             class="st0"
             d="M 71.738876,60.688572 H 97.293335 M 71.621597,59.569622 H 97.176056" />
        </g>
      </g>
    </g>
  </g>
  <style
     type="text/css"
     id="style12677">
	.st0{fill:none;stroke:#000000;stroke-width:2;stroke-linecap:round;stroke-linejoin:round;stroke-miterlimit:10;}
</style>
</svg>
